===========Visit DUSTorrents.com for more Exclusives==============

Visit DusTorrents.com for more exclusives....

DusTorrents.com a Complete FreeLeech Site!! Registrations are absolutely FREE!!

Register by visiting..... www.dustorrents.com

========================================================

[CENTER][B][FONT=Comic Sans MS][SIZE=5][COLOR=#FF0000]Karzzzz (2008) 1/3 DvD RiP XviD 5.1 AC3 [DUSTorrents] [Team DUS][/COLOR][/SIZE][/FONT][/B]

[IMG]http://i897.photobucket.com/albums/ac175/drmasoom/DUS%20Banners/BG-banner.jpg[/IMG]

[IMG]http://i.indiafm.com/firstlook/karzzzz2.jpg[/IMG][/CENTER]

[CODE]
[B][FONT=Comic Sans MS][COLOR=#FF0000]Source                           : DvD 9 @ DRs Thanks.
Ripper                           : I Proud To Be An Indian [Team DUS][/COLOR][/FONT][/B]
General
Complete name                    : D:\Download\Karzzzz (2008) DvD RiP XviD 5.1 AC3 [DUSTorrents] [Team DUS]\Karzzzz (2008) DvD RiP XviD 5.1 AC3 [DUSTorrents] [Team DUS].avi
Format                           : AVI
Format/Info                      : Audio Video Interleave
Format profile                   : OpenDML
Format settings                  : rec
File size                        : 1.43 GiB
Duration                         : 2h 16mn
Overall bit rate                 : 1 501 Kbps
Writing application              : AVI-Mux GUI 1.17.8.3, Feb 16 201019:42:50

Video
ID                               : 0
Format                           : MPEG-4 Visual
Format profile                   : Advanced Simple@L5
Format settings, BVOP            : 2
Format settings, QPel            : No
Format settings, GMC             : No warppoints
Format settings, Matrix          : Default (H.263)
Codec ID                         : XVID
Codec ID/Hint                    : XviD
Duration                         : 2h 16mn
Bit rate                         : 1 111 Kbps
Width                            : 720 pixels
Height                           : 304 pixels
Display aspect ratio             : 2.35:1
Frame rate                       : 29.970 fps
Color space                      : YUV
Chroma subsampling               : 4:2:0
Bit depth                        : 8 bits
Scan type                        : Progressive
Compression mode                 : Lossy
Bits/(Pixel*Frame)               : 0.169
Stream size                      : 1.06 GiB (74%)
Writing library                  : XviD 1.2.1 (UTC 2008-12-04)

Audio
ID                               : 1
Format                           : AC-3
Format/Info                      : Audio Coding 3
Mode extension                   : CM (complete main)
Codec ID                         : 2000
Duration                         : 2h 16mn
Bit rate mode                    : Constant
Bit rate                         : 384 Kbps
Channel(s)                       : 6 channels
Channel positions                : Front: L C R, Side: L R, LFE
Sampling rate                    : 48.0 KHz
Bit depth                        : 16 bits
Compression mode                 : Lossy
Stream size                      : 375 MiB (26%)
Alignment                        : Aligned on interleaves
Interleave, duration             : 64 ms (1.92 video frames)
Interleave, preload duration     : 192 ms
Title                            : karzz T81 3_2ch 384Kbps DELAY 0ms[/CODE]

[CENTER][IMG]http://img21.imageshack.us/img21/3431/5vh6rom324kkccccthg.gif[/IMG]

[IMG]http://img685.imageshack.us/img685/8940/62037334.png[/IMG]

[IMG]http://img24.imageshack.us/img24/8504/17447572.png[/IMG]

[IMG]http://img696.imageshack.us/img696/1909/23030277.png[/IMG]

[IMG]http://img198.imageshack.us/img198/7857/46491570.png[/IMG]

[IMG]http://img89.imageshack.us/img89/3848/80822933.png[/IMG]

[IMG]http://img809.imageshack.us/img809/8352/93081240.png[/IMG]

[IMG]http://img163.imageshack.us/img163/1378/90191976.png[/IMG]

[B][FONT=Comic Sans MS][SIZE=4][COLOR=#FF0000]Sample Included In Torrent. Enjoy.[/COLOR][/SIZE][/FONT][/B]

:groupwave:[/CENTER]